<svg width="18" height="16" viewBox="0 0 18 16" fill="none" xmlns="http://www.w3.org/2000/svg">
<path d="M0.670654 5.91667V1.33333C0.670654 0.8731 1.04375 0.5 1.50399 0.5H16.504C16.9643 0.5 17.3373 0.8731 17.3373 1.33333V5.91667C16.1868 5.91667 15.254 6.84942 15.254 8C15.254 9.15058 16.1868 10.0833 17.3373 10.0833V14.6667C17.3373 15.1269 16.9643 15.5 16.504 15.5H1.50399C1.04375 15.5 0.670654 15.1269 0.670654 14.6667V10.0833C1.82125 10.0833 2.75399 9.15058 2.75399 8C2.75399 6.84942 1.82125 5.91667 0.670654 5.91667ZM2.33732 4.6398C3.57209 5.25343 4.42065 6.52758 4.42065 8C4.42065 9.47242 3.57209 10.7466 2.33732 11.3602V13.8333H15.6707V11.3602C14.4359 10.7466 13.5873 9.47242 13.5873 8C13.5873 6.52758 14.4359 5.25343 15.6707 4.6398V2.16667H2.33732V4.6398ZM6.50399 5.5H11.504V7.16667H6.50399V5.5ZM6.50399 8.83333H11.504V10.5H6.50399V8.83333Z" fill="#4338CA"/>
</svg>
