<svg width="20" height="20" viewBox="0 0 20 20" fill="none" xmlns="http://www.w3.org/2000/svg">
<path d="M8.5 15H2V13H8.5C10.433 13 12 14.567 12 16.5C12 18.433 10.433 20 8.5 20C6.99957 20 5.71966 19.0559 5.22196 17.7293L7.09513 17.0268C7.30843 17.5954 7.85696 18 8.5 18C9.3284 18 10 17.3284 10 16.5C10 15.6716 9.3284 15 8.5 15ZM3 9H16.5C18.433 9 20 10.567 20 12.5C20 14.433 18.433 16 16.5 16C14.9996 16 13.7197 15.0559 13.222 13.7293L15.0951 13.0268C15.3084 13.5954 15.857 14 16.5 14C17.3284 14 18 13.3284 18 12.5C18 11.6716 17.3284 11 16.5 11H3C1.34315 11 0 9.6569 0 8C0 6.34315 1.34315 5 3 5H11.5C12.3284 5 13 4.32843 13 3.5C13 2.67157 12.3284 2 11.5 2C10.857 2 10.3084 2.40463 10.0951 2.97317L8.222 2.27073C8.7197 0.94414 9.9996 0 11.5 0C13.433 0 15 1.567 15 3.5C15 5.433 13.433 7 11.5 7H3C2.44772 7 2 7.44772 2 8C2 8.5523 2.44772 9 3 9Z" fill="#4338CA"/>
</svg>
