<svg width="24" height="20" viewBox="0 0 24 20" fill="none" xmlns="http://www.w3.org/2000/svg">
<path d="M14.5135 3.00008L17.1201 0.393483C17.5106 0.00295344 18.1438 0.00295344 18.5343 0.393483L22.777 4.63612C23.1675 5.02664 23.1675 5.65981 22.777 6.05033L18.9988 9.8285V19.0001C18.9988 19.5524 18.5511 20.0001 17.9988 20.0001H5.9988C5.44652 20.0001 4.9988 19.5524 4.9988 19.0001V9.8285L1.22063 6.05033C0.830103 5.65981 0.830103 5.02664 1.22063 4.63612L5.46327 0.393483C5.85379 0.00295344 6.48696 0.00295344 6.87748 0.393483L9.48408 3.00008H14.5135ZM15.3419 5.00008H8.65566L6.17037 2.5148L3.34195 5.34323L6.9988 9.0001V18.0001H16.9988V9.0001L20.6557 5.34323L17.8272 2.5148L15.3419 5.00008Z" fill="#4338CA"/>
</svg>
