<svg width="16" height="20" viewBox="0 0 16 20" fill="none" xmlns="http://www.w3.org/2000/svg">
<path d="M1.99805 0C1.99805 0.51284 2.48805 1 2.99805 1H12.998C13.5109 1 13.998 0.51 13.998 0H15.998C15.998 1.65685 14.6549 3 12.998 3H8.998L8.999 5.06201C12.9449 5.55453 15.998 8.9207 15.998 13V19C15.998 19.5523 15.5503 20 14.998 20H0.998047C0.445757 20 -0.00195312 19.5523 -0.00195312 19V13C-0.00195312 8.9204 3.05176 5.55396 6.9981 5.06189L6.998 3H2.99805C1.33805 3 -0.00195312 1.66 -0.00195312 0H1.99805ZM7.998 7C4.75965 7 1.99805 9.76 1.99805 13V18H13.998V13C13.998 9.7616 11.2364 7 7.998 7ZM7.998 9C8.7399 9 9.4345 9.2019 10.03 9.5538L7.2909 12.2929C6.9004 12.6834 6.9004 13.3166 7.2909 13.7071C7.6514 14.0676 8.2187 14.0953 8.6109 13.7903L8.7052 13.7071L11.4442 10.968C11.7961 11.5635 11.998 12.2582 11.998 13C11.998 15.2091 10.2072 17 7.998 17C5.78891 17 3.99805 15.2091 3.99805 13C3.99805 10.7909 5.78891 9 7.998 9Z" fill="#4338CA"/>
</svg>
