<svg width="21" height="21" viewBox="0 0 21 21" fill="none" xmlns="http://www.w3.org/2000/svg">
<path d="M18.5605 10.0975L20.092 12.7501C21.0585 14.4241 20.4849 16.5647 18.8109 17.5312C18.2788 17.8384 17.6753 18.0001 17.0609 18.0001L14.9985 17.9995L14.9987 20.5001L9.9987 17.0001L14.9987 13.5001L14.9985 15.9995L17.0609 16.0001C17.3242 16.0001 17.5829 15.9308 17.8109 15.7991C18.5283 15.3849 18.7742 14.4675 18.3599 13.7501L16.8285 11.0975L18.5605 10.0975ZM6.30257 7.13407L6.83366 13.2142L4.66848 11.9635L3.63751 13.7501C3.50586 13.9781 3.43655 14.2368 3.43655 14.5001C3.43655 15.3285 4.10812 16.0001 4.93655 16.0001L7.99948 16.0002V18.0001H4.93655C3.00355 18.0001 1.43655 16.4331 1.43655 14.5001C1.43655 13.8857 1.59827 13.2822 1.90546 12.7501L2.93648 10.9635L0.771484 9.7142L6.30257 7.13407ZM12.7487 0.969009C13.2808 1.2762 13.7226 1.71803 14.0298 2.2501L15.0605 4.03551L17.226 2.78599L16.6949 8.8661L11.1638 6.28599L13.3285 5.03551L12.2978 3.2501C12.1661 3.02207 11.9768 2.83271 11.7487 2.70106C11.0313 2.28684 10.1139 2.53266 9.69971 3.2501L8.16818 5.90261L6.43615 4.90266L7.96764 2.2501C8.93414 0.576069 11.0747 0.00250897 12.7487 0.969009Z" fill="#4338CA"/>
</svg>