<svg width="22" height="20" viewBox="0 0 22 20" fill="none" xmlns="http://www.w3.org/2000/svg">
<path d="M11 1.99988C13.2091 1.99988 15 3.79074 15 5.99988C15 6.54431 14.8917 7.06177 14.6958 7.53327C13.0548 7.70904 11.5038 8.5584 10.4804 9.9666C9.2212 9.8033 8.14476 9.0545 7.53417 7.99859C7.19462 7.41137 6.99998 6.72986 6.99998 5.99988C6.99998 3.79074 8.79084 1.99988 11 1.99988ZM16.7635 7.67236C16.9175 7.14099 17 6.57964 17 5.99988C17 2.68617 14.3137 -0.00012107 11 -0.00012207C7.68627 -0.00012307 4.99998 2.68617 4.99998 5.99988C4.99998 6.57966 5.08247 7.14104 5.23647 7.67242C4.69935 7.80476 4.172 8.01399 3.66995 8.30385C0.800192 9.9607 -0.183058 13.6302 1.47379 16.5C3.13065 19.3698 6.80019 20.353 9.6699 18.6962C10.172 18.4063 10.6169 18.0542 11 17.6552C11.3832 18.0542 11.828 18.4062 12.33 18.6961C15.1998 20.3529 18.8693 19.3697 20.5262 16.4999C22.183 13.6302 21.1998 9.9606 18.33 8.30377C17.828 8.01392 17.3006 7.80469 16.7635 7.67236ZM12.1543 15.9342C12.8227 14.4251 12.8627 12.6571 12.1549 11.0667C12.9259 10.0577 14.1125 9.4999 15.3322 9.4991C16.0104 9.4987 16.6979 9.6709 17.33 10.0358C19.2432 11.1404 19.8987 13.5868 18.7941 15.4999C17.6895 17.4131 15.2432 18.0686 13.33 16.964C12.8586 16.6919 12.4647 16.3395 12.1543 15.9342ZM10.3649 11.9668C10.8532 13.139 10.7429 14.4456 10.1337 15.5023C9.7949 16.0899 9.3021 16.5991 8.66995 16.9641C6.75678 18.0687 4.31042 17.4132 3.20585 15.5C2.10128 13.5868 2.75678 11.1405 4.66995 10.0359C5.14142 9.7637 5.64366 9.5987 6.1499 9.5326C7.12267 10.8659 8.63373 11.7845 10.3649 11.9668Z" fill="#4338CA"/>
</svg>
