<svg width="18" height="21" viewBox="0 0 18 21" fill="none" xmlns="http://www.w3.org/2000/svg">
<path d="M0.00488281 5.99981L8.4502 0.369608C8.7861 0.145678 9.2237 0.145678 9.5596 0.369608L18.0049 5.99981V19.9998C18.0049 20.5521 17.5572 20.9998 17.0049 20.9998H1.00488C0.452603 20.9998 0.00488281 20.5521 0.00488281 19.9998V5.99981ZM2.00488 7.07018V18.9998H16.0049V7.07018L9.0049 2.40351L2.00488 7.07018ZM5.00488 14.9998H13.0049V16.9998H5.00488V14.9998ZM5.00488 11.9998H13.0049V13.9998H5.00488V11.9998ZM9.0049 9.9998C7.9003 9.9998 7.0049 9.1044 7.0049 7.99981C7.0049 6.89524 7.9003 5.99981 9.0049 5.99981C10.1095 5.99981 11.0049 6.89524 11.0049 7.99981C11.0049 9.1044 10.1095 9.9998 9.0049 9.9998Z" fill="#4338CA"/>
</svg>
