<svg width="18" height="22" viewBox="0 0 18 22" fill="none" xmlns="http://www.w3.org/2000/svg">
<path d="M9.0049 3.10333L4.05514 8.05308C1.32147 10.7867 1.32147 15.2189 4.05514 17.9526C6.78881 20.6862 11.221 20.6862 13.9546 17.9526C16.6883 15.2189 16.6883 10.7867 13.9546 8.05308L9.0049 3.10333ZM9.0049 0.274902L15.3688 6.63886C18.8836 10.1536 18.8836 15.8521 15.3688 19.3668C11.8541 22.8815 6.15564 22.8815 2.64092 19.3668C-0.873797 15.8521 -0.873797 10.1536 2.64092 6.63886L9.0049 0.274902ZM10.0049 11.0028H12.5049L8.0049 17.5028V13.0028H5.50488L10.0049 6.50282V11.0028Z" fill="#4338CA"/>
</svg>
