<svg width="20" height="20" viewBox="0 0 20 20" fill="none" xmlns="http://www.w3.org/2000/svg">
<path d="M10.0049 20.0029C4.48204 20.0029 0.004879 15.5258 0.004879 10.0029C0.004879 4.48008 4.48204 0.00292969 10.0049 0.00292969C15.5277 0.00292969 20.0049 4.48008 20.0049 10.0029C20.0049 15.5258 15.5277 20.0029 10.0049 20.0029ZM10.0049 18.0029C14.4232 18.0029 18.0049 14.4212 18.0049 10.0029C18.0049 5.58465 14.4232 2.00293 10.0049 2.00293C5.5866 2.00293 2.00488 5.58465 2.00488 10.0029C2.00488 14.4212 5.5866 18.0029 10.0049 18.0029ZM5.00488 11.0029H14.0049V13.0029H10.0049V16.0029L5.00488 11.0029ZM10.0049 7.00293V4.00293L15.0049 9.0029H6.00488V7.00293H10.0049Z" fill="#4338CA"/>
</svg>
