<svg width="13" height="14" viewBox="0 0 13 14" fill="none" xmlns="http://www.w3.org/2000/svg">
<path d="M11.3611 5.6111H12.0556C12.4391 5.6111 12.75 5.922 12.75 6.30554V13.25C12.75 13.6335 12.4391 13.9444 12.0556 13.9444H0.944444C0.560917 13.9444 0.25 13.6335 0.25 13.25V6.30554C0.25 5.922 0.560917 5.6111 0.944444 5.6111H1.63889V4.91665C1.63889 2.23194 3.81528 0.055542 6.5 0.055542C9.18472 0.055542 11.3611 2.23194 11.3611 4.91665V5.6111ZM1.63889 6.99999V12.5555H11.3611V6.99999H1.63889ZM5.80556 8.38888H7.19444V11.1667H5.80556V8.38888ZM9.97222 5.6111V4.91665C9.97222 2.999 8.41764 1.44443 6.5 1.44443C4.58235 1.44443 3.02778 2.999 3.02778 4.91665V5.6111H9.97222Z" fill="white"/>
</svg>
